<svg xmlns="http://www.w3.org/2000/svg" enable-background="new 0 0 32 32" viewBox="0 0 32 32" id="bike"><path d="M26,16h4c0.5522,0,1-0.4478,1-1v-1c0-4.9624-4.0376-9-9-9c-0.5522,0-1,0.4478-1,1v3h-3c-1.6543,0-3,1.3457-3,3h-3.4648
		l-0.5156-0.7734C10.0903,9.8325,8.5352,9,6.8594,9C3.6284,9,1,11.6284,1,14.8594V15c0,0.5522,0.4478,1,1,1h4
		c2.9672,0,5.4313,2.1669,5.9097,5h-1.0107C10.4343,18.7207,8.4144,17,6,17c-2.7568,0-5,2.2432-5,5s2.2432,5,5,5
		c2.4144,0,4.4343-1.7207,4.8989-4H13h6c0.5522,0,1-0.4473,1-1c0-1.7806,0.7839-3.3776,2.0195-4.4774l0.5414,0.8654
		C21.6041,19.2994,21,20.5775,21,22c0,2.7568,2.2432,5,5,5s5-2.2432,5-5s-2.2432-5-5-5c-0.6148,0-1.1973,0.1266-1.7418,0.3306
		L23.711,16.456C24.4169,16.1635,25.1895,16,26,16z M26,19c1.6543,0,3,1.3457,3,3s-1.3457,3-3,3s-3-1.3457-3-3
		c0-0.7034,0.2534-1.3425,0.6603-1.8547l1.492,2.3849C25.3418,22.834,25.668,23,26.001,23c0.1812,0,0.3647-0.0488,0.5293-0.1523
		c0.4683-0.293,0.6104-0.9102,0.3174-1.3779l-1.4979-2.3943C25.5598,19.0287,25.7762,19,26,19z M6,25c-1.6543,0-3-1.3457-3-3
		s1.3457-3,3-3c1.3019,0,2.4016,0.8385,2.8157,2H6c-0.5522,0-1,0.4473-1,1s0.4478,1,1,1h2.8157C8.4016,24.1615,7.3019,25,6,25z
		 M18.062,21h-4.124c-0.4941-3.9404-3.8657-7-7.938-7H3.0967c0.3916-1.7158,1.9297-3,3.7627-3c1.0054,0,1.9385,0.4995,2.4961,1.3359
		l0.8125,1.2188C10.3535,13.833,10.6655,14,11,14h5c0.5522,0,1-0.4478,1-1v-1c0-0.5513,0.4487-1,1-1h4c0.5522,0,1-0.4478,1-1V7.0713
		c3.3877,0.4868,6,3.4082,6,6.9287h-3c-1.5562,0-3.0082,0.4494-4.2383,1.2214c-0.0006,0.0004-0.0013,0.0004-0.0013,0.0004
		c-0.0015,0.0009-0.0018,0.0018-0.0027,0.0024C19.7711,16.4727,18.3671,18.5671,18.062,21z"></path></svg>