<svg xmlns="http://www.w3.org/2000/svg" viewBox="0 0 100 100" id="car-door"><path d="M21.2 51.8c.1 0 .1 0 .2.1.1 0 .1 0 .2.1H83c1.1 0 2-.9 2-2V22c0-1.1-.9-2-2-2H50.4c-.1 0-.1 0-.2.1-.1 0-.1.1-.2.1s-.1.1-.2.1-.1.1-.2.1l-.1.1-29 28-.2.2-.1.1c0 .1-.1.1-.1.2 0 0 0 .1-.1.1 0 .1 0 .1-.1.2 0 .1-.1.1-.1.2V50.4c0 .1 0 .1.1.2 0 .1.1.1.1.2s.1.1.1.2.1.1.1.2l.1.1.2.2.1.1c.4.1.5.2.6.2zM51.8 24H81v24H46V29.6l5.8-5.6zM42 48H27l15-14.5V48zm39 12c0 1.1-.9 2-2 2H69c-1.1 0-2-.9-2-2s.9-2 2-2h10c1.1 0 2 .9 2 2zM93 9H47c-.5 0-1 .2-1.4.6l-40 39c-.4.3-.6.9-.6 1.4v11c0 1.1.9 2 2 2 16.1 0 30.1 10.9 34 26.5.2.9 1 1.5 1.9 1.5H93c1.1 0 2-.9 2-2V11c0-1.1-.9-2-2-2zM9 59.1v-8.2L47.8 13H91v64H39.9C33.2 66.6 21.8 59.7 9 59.1zM44.4 87c-.6-2.1-1.4-4.1-2.3-6H91v6H44.4z"></path></svg>