<svg xmlns="http://www.w3.org/2000/svg" width="58" height="59" viewBox="0 0 58 59" id="guitar"><g fill="none" fill-rule="evenodd"><g fill="#000" transform="translate(-617 -141)"><g transform="translate(617 141)"><path d="M53.723 8.347l-6.681 5.01a2.05 2.05 0 0 0-.21.18L35.488 24.885a5.382 5.382 0 0 0-1.585 3.83c0 1.45.563 2.812 1.585 3.834.155.155.337.283.534.378l3.09 1.472a10.395 10.395 0 0 1-4.061 2.025l-.61.15c-2.456.494-4.3 2.625-4.486 5.186-.179 2.497-.746 4.7-1.742 6.757-.825 1.748-2.348 4.109-4.901 5.44l-.006.004c-5.477 2.88-11.38-.025-14.771-3.389-3.407-3.377-6.378-9.28-3.539-14.794.81-1.553 2.298-2.702 4.084-3.151l8.137-2.058a8.98 8.98 0 0 0 4.125-2.35 8.823 8.823 0 0 0 2.525-5.012c.177-1.214.96-2.23 2.12-2.731a3.16 3.16 0 0 1 1.281-.266c.983 0 2.007.426 2.795 1.214l1.393 1.394a1.937 1.937 0 0 0 2.737 0l10.959-10.963c.064-.064.126-.134.18-.205l5.01-6.682a.393.393 0 0 1 .295-.16.385.385 0 0 1 .314.116l2.814 2.816c.108.107.124.23.118.314a.396.396 0 0 1-.159.294M56.503 5l-2.817-2.814a4.274 4.274 0 0 0-6.44.459l-4.93 6.57-9.492 9.494-.025-.025c-2.269-2.266-5.642-2.97-8.367-1.753a7.341 7.341 0 0 0-4.396 5.72 4.995 4.995 0 0 1-1.432 2.83 5.075 5.075 0 0 1-2.342 1.336L8.13 28.871c-2.855.722-5.25 2.586-6.573 5.125-3.13 6.077-1.461 13.662 4.25 19.324 3.746 3.716 8.31 5.678 12.715 5.678 2.28 0 4.519-.528 6.578-1.608 2.776-1.448 5.062-3.944 6.602-7.202 1.208-2.49 1.899-5.158 2.112-8.152.06-.842.617-1.512 1.47-1.686l.69-.17a14.233 14.233 0 0 0 6.658-3.753l1.204-1.204a1.936 1.936 0 0 0-.536-3.116l-5.25-2.503a1.552 1.552 0 0 1 .173-1.984l11.25-11.249 6.57-4.927A4.274 4.274 0 0 0 56.503 5"></path><path d="M18.911 43.25c-.809.809-2.218.809-3.029 0a2.13 2.13 0 0 1-.629-1.514c0-.573.224-1.11.629-1.515a2.13 2.13 0 0 1 1.514-.627c.55 0 1.097.209 1.515.627.405.404.627.942.627 1.515 0 .571-.222 1.11-.627 1.514m-5.768-5.766a5.978 5.978 0 0 0-1.761 4.252c0 1.607.627 3.116 1.761 4.25a5.973 5.973 0 0 0 4.253 1.762 5.973 5.973 0 0 0 4.252-1.761h.002a5.975 5.975 0 0 0 1.76-4.25 5.97 5.97 0 0 0-1.762-4.253 6.022 6.022 0 0 0-8.505 0"></path></g></g></g></svg>