<svg xmlns="http://www.w3.org/2000/svg" data-name="Layer 1" viewBox="0 0 512 512" id="pet"><path d="M412 178.7a4 4 0 0 0 1-.12l12.94-3.27a3.91 3.91 0 0 0-1.92-7.58L411.09 171a3.91 3.91 0 0 0 1 7.7Z"></path><path d="M500.49 410.59c-14.22-11.4-33.56-8.16-38.83-7-9.1-3.71-71.3-29.89-97-63a228.72 228.72 0 0 0 26.21-57.23v-.39l3.71-20.08c.12-.16.27-.27.39-.43 4.26-6.25 10.86-10.78 15.63-13.44a4.77 4.77 0 0 1 4.84.08c6.25 3.48 15.43 7.07 23.52 4.34s29.07-6.18 35.4-7.15a18.26 18.26 0 0 0 12.89-9.14l5.86-10.79c.35-.23.7-.35 1.05-.62 4.61-3.87 10.08-9.81 9.93-16.1-.2-7.15-6.53-11.44-10.75-13.12a19.06 19.06 0 0 0-1.87-1.72c-5.71-4.26-13-7.39-20-10.39-8.47-3.64-17.18-7.39-22.38-12.82-2-2.11-5.2-6.09-3.56-9a9 9 0 0 0-1.72-10.79c-8.09-7.8-24.15-21.67-39.81-25.8-10.36-2.73-14.89-.7-18.56.9l-.51.23a72 72 0 0 1-19.26-3.32 39.25 39.25 0 0 0-11.09-2.11h-.12c-10.59 0-33.72 18.17-39.54 26.57-4.53 6.6-3.63 17.35-.46 25.67-6.18 13.24-10.24 25.16-11.53 31.21-.43 2-.82 3.75-1.21 5.43-.08.12-.2.2-.27.31l-10.94 20.83c-8.52 10.62-17.66 15.47-28.13 14.65-3.59-4.73-15.82-15.55-50.24-15.16-35.28-32.54-87.71-81.18-90.44-84.39a2.73 2.73 0 0 0-.63-.74c-3.28-12.27-5.43-25-3.47-37.54 2.11-13.52 10.86-29.26 25.7-33.91.82-.24 1.68-.47 2.54-.7 4.65-1.33 10.43-2.93 13.32-8.17 2.54-4.65 1.68-11-2.14-15.47-2.82-3.28-7-5.59-12.35-6.88-16.56-4-35.9 3.09-51.72 18.91-25.24 25.24-35.4 63.6-26.8 98-18.91 8.32-41.34 21.25-47.51 37.74l-.74 2.07C6.22 231.2-3.86 258.08 24.07 323.4c-3 7.42-15.55 39.1-17.85 51.76-2.78 15 21.52 72.16 30.43 79.93 7.66 6.76 25.67 14.61 40.83 14.61a36 36 0 0 0 5.93-.47c10.28-1.64 13.83-11.33 12.78-19.61-1.13-8.87-6.84-14.84-13.79-14.26a26.13 26.13 0 0 1-13.17-1.72l-16.6-56.25c2-1.49 5.2-3.95 9.1-7.07 7.89 20.86 19.26 44.57 25.36 49.92 1.4 1.21 2.69 2.54 4 3.87C97.56 430.67 104.78 438 124 438a98.16 98.16 0 0 0 11-.7c11.53-1.37 15.71-11.92 14.73-21.18-1-10.39-7.77-17.62-15.51-17-7.42.66-9.33-1.14-9.57-1.45 0-.08-.08-.19-.12-.27l-25.55-64a47.64 47.64 0 0 0 6.41-11.8c2.93-8.48 4.81-14.85 6-19.54 16.48 27.23 72.94 100.48 203.15 100.48h.86c11.13 8.44 97 72 157.51 62.39a2.21 2.21 0 0 0 .78-.23c3.44-1.33 20.67-8.48 22.27-18.95.39-2.42 0-5.78-3.05-9.3 6.33-3.67 12.35-8.71 13.05-14.8.32-2.77-.39-6.99-5.47-11.06Zm-189.9-203.81c1.05-4.88 4.1-13.91 8.71-24.45a14.76 14.76 0 0 0 1.48 1.48c2.15 1.84 2.78 4.06 3.72 7.38a37.05 37.05 0 0 0 4.18 10.2c5.62 9 22.54 16.72 31.64 19.92 3.67 1.29 7.15 3.75 10.51 6.14 4.88 3.47 9.49 6.76 14.92 6.8 2 0 4.93-.75 7.66-4.3 5.74-7.5 7.85-23.79 4.57-35.59-3.71-13.52-3.63-34.5-1.17-45.63a18.68 18.68 0 0 0-3.56-16.14 22.34 22.34 0 0 1 8.75 1c14.46 3.79 30.28 18 36.41 23.91a1.3 1.3 0 0 1 .36 1.33c-1.76 3.12-3.48 9.65 4.68 18.2 6.29 6.6 15.79 10.67 25 14.61a127 127 0 0 1 14.55 6.9 13.52 13.52 0 0 0-7 9.46c-1.45 7.58 4.57 13.87 8.83 17.27l-4.42 8.13a10.13 10.13 0 0 1-7.27 5.15c-8.24 1.33-28.32 4.65-36.64 7.46-5.66 1.92-13.2-1.52-17.23-3.75a12.66 12.66 0 0 0-12.46-.07c-5.24 2.93-12.38 7.89-17.46 14.8-10.83-4.18-50.36-20.59-79.82-45.51.36-1.48.71-2.98 1.06-4.7Zm177.64 237.8c-.67 4.38-10.4 10.08-17 12.74-60 9.1-151.23-61-152.16-61.73a3.72 3.72 0 0 0-2.43-.82h-2.14c-146 0-195.85-94.23-201-105l-.32-.7a3.83 3.83 0 0 0-4.29-2.27 4 4 0 0 0-3.21 3.75 17.88 17.88 0 0 1-.31 2.66c-.59 3.36-2.3 11.17-7.38 25.86a43.94 43.94 0 0 1-6.57 11.48c-8.16 11.1-21 22.59-30.35 30.24-8.52 7.07-15.12 11.84-15.2 11.88a4 4 0 0 0-1.44 4.3l17.77 60.46a3.72 3.72 0 0 0 1.6 2.15c.28.2 7.19 4.69 19.34 3.6 2.74-.28 4.81 3.55 5.28 7.42.15 1 1 9.76-6.25 10.94-13.6 2.18-33-5.82-40.36-12.31-7-6.09-30.24-60.05-27.93-72.66 2.46-13.29 17.89-51.38 18-51.73a3.89 3.89 0 0 0 0-3c-27.51-63.52-18.29-88-6.65-118.92l.77-2.12c4.06-10.93 19.06-22.54 42.34-32.89.16.51.32 1.05.51 1.56a3.9 3.9 0 1 0 7.35-2.61c-.67-1.84-1.25-3.72-1.76-5.63 0-.08 0-.16-.08-.23-9.1-32.47.2-69.19 24.1-93.14C112.4 54 129 47.62 142.91 51c3.72.9 6.49 2.39 8.21 4.38s2.22 4.8 1.25 6.6c-1.33 2.38-4.85 3.36-8.6 4.42-.93.27-1.87.5-2.77.78-15.86 5-28.09 20.74-31.1 40.16-2.23 14.53.39 28.91 4.14 42.58.71 2.54 1.41 5 2.15 7.54a3.83 3.83 0 0 0 6.68 1.33C141 176 186.16 217.84 208 238a4 4 0 0 0 2.73 1.05c38.09-.9 45.87 12.66 45.91 12.74a4 4 0 0 0 3 2.11 37 37 0 0 0 5 .35c10.78 0 20.66-5 29.45-14.69 7.7 6.41 31 22.85 88.18 45a222 222 0 0 1-25.63 54.07 157.16 157.16 0 0 1-13.17 17.7A3.9 3.9 0 0 0 343 361c24.22 41.33 103.64 72.66 107 74a3.84 3.84 0 0 0 2.46.12c.16 0 18.36-4.77 31.41 3.94.66.43 1.21.86 1.8 1.29 2.87 2.28 2.63 3.76 2.56 4.23Z"></path></svg>